<?xml version="1.0" encoding="utf-8"?>
<!-- Generator: Adobe Illustrator 24.0.0, SVG Export Plug-In . SVG Version: 6.00 Build 0)  -->
<svg version="1.1" id="Logo_-_black" xmlns="http://www.w3.org/2000/svg" xmlns:xlink="http://www.w3.org/1999/xlink" x="0px"
	 y="0px" viewBox="0 0 406 114" style="enable-background:new 0 0 406 114;" xml:space="preserve">
<path d="M19.525,48.222c-8.842,0-18.29-6.167-18.29-23.475s9.448-23.475,18.29-23.475c8.843,0,18.291,6.167,18.291,23.475
	S28.368,48.222,19.525,48.222z M19.525,8.544c-5.702,0-8.843,5.754-8.843,16.203s3.141,16.203,8.843,16.203
	c5.703,0,8.844-5.754,8.844-16.203S25.228,8.544,19.525,8.544z"/>
<path d="M55.097,47.581h-9.191V1.912h13.3c9.225,0,14.515,5.127,14.515,14.067c0,8.98-5.29,14.131-14.515,14.131h-4.108V47.581z
	 M55.097,22.839h2.572c4.744,0,6.859-2.115,6.859-6.859c0-4.699-2.115-6.795-6.859-6.795h-2.572V22.839z"/>
<path d="M107.128,47.581H82.002V1.912h24.486V9.44H91.194v10.902h14.463v7.528H91.194v12.183h15.935V47.581z"/>
<path d="M150.065,47.581h-10.622l-14.08-33.158v33.158h-8.423V1.912h10.558l14.145,33.409V1.912h8.423V47.581z"/>
<path d="M188.991,48.222c-4.648,0-8.159-0.691-10.433-2.056l-0.261-0.156l0.519-8.447l0.717,0.459
	c0.979,0.627,4.539,2.672,9.201,2.672c3.038,0,6.284-1.566,6.284-5.963c0-2.797-1.458-4.094-5.564-6.346l-4.161-2.305
	c-5.083-2.799-7.554-6.772-7.554-12.148c0-6.301,4.508-12.659,14.579-12.659c4.331,0,7.512,1.001,9.041,1.482l0.824,0.252
	l-0.444,7.927l-1.114-0.432c-1.934-0.759-4.341-1.702-7.73-1.702c-3.574,0-5.708,1.775-5.708,4.748c0,3.052,2.077,4.224,4.482,5.58
	l4.798,2.687c5.188,2.911,7.999,5.761,7.999,12.468C204.465,42.881,198.536,48.222,188.991,48.222z"/>
<path d="M228.221,48.222c-8.842,0-18.29-6.167-18.29-23.475s9.448-23.475,18.29-23.475c8.843,0,18.291,6.167,18.291,23.475
	S237.064,48.222,228.221,48.222z M228.221,8.544c-5.702,0-8.843,5.754-8.843,16.203s3.141,16.203,8.843,16.203
	c5.703,0,8.844-5.754,8.844-16.203S233.924,8.544,228.221,8.544z"/>
<path d="M272.957,48.222c-12.979,0-21.043-8.995-21.043-23.475c0-14.261,8.159-23.475,20.787-23.475
	c4.516,0,8.266,1.184,10.099,1.89l0.342,0.132l-0.517,8.48l-1.222-0.618c-1.618-0.836-4.064-2.101-7.679-2.101
	c-3.64,0-12.106,1.529-12.106,15.691c0,14.161,8.467,15.69,12.106,15.69c3.435,0,6.102-0.723,8.154-2.209l0.737-0.534l0.522,8.716
	l-0.281,0.151C281.042,47.539,276.971,48.222,272.957,48.222z"/>
<path d="M300.914,47.581h-9.191V1.912h9.191V47.581z"/>
<path d="M334.897,47.581H309.77V1.912h24.486V9.44h-15.295v10.902h14.463v7.528h-14.463v12.183h15.936V47.581z"/>
<path d="M357.169,47.581h-9.191V9.44h-9.983V1.912h29.094V9.44h-9.919V47.581z"/>
<path d="M391.281,47.581h-9.191V29.279L368.602,1.912h9.948l8.377,17.187l7.885-17.187h9.953l-13.484,27.559V47.581z"/>
<path d="M5.72,67.611h19.966v4.863H11.352v14.207h13.631v4.864H11.352v20.734H5.72V67.611z"/>
<path d="M51.35,67.163c9.92,0,16.256,8.512,16.256,22.335c0,15.423-6.208,23.229-16.768,23.229c-9.919,0-16.254-8.511-16.254-22.334
	C34.584,74.971,40.792,67.163,51.35,67.163z M50.838,108.12c5.889,0,10.88-4.863,10.88-18.622c0-9.023-2.815-17.728-10.368-17.728
	c-5.887,0-10.879,4.864-10.879,18.623C40.471,99.417,43.288,108.12,50.838,108.12z"/>
<path d="M106.709,95.833c0,4.416-0.256,6.848-1.792,9.983c-1.855,3.712-5.759,6.911-12.223,6.911
	c-6.464,0-10.368-3.199-12.224-6.911c-1.535-3.136-1.791-5.567-1.791-9.983V67.611h5.631v29.054c0,6.976,3.072,11.455,8.384,11.455
	s8.384-4.479,8.384-11.455V67.611h5.631V95.833z"/>
<path d="M120.792,67.611h6.976l16.831,36.861h0.127V67.611h5.376v44.669h-6.976l-16.83-36.606h-0.129v36.606h-5.375V67.611z"/>
<path d="M164.286,67.611h9.727c5.951,0,9.343,1.408,11.903,3.199c3.967,2.752,8.255,8.384,8.255,18.431
	c0,12.928-6.143,23.039-22.91,23.039h-6.976V67.611z M169.917,107.416h3.392c9.855,0,14.975-6.719,14.975-18.175
	c0-9.343-3.967-16.767-14.975-16.767h-3.392V107.416z"/>
<path d="M221.051,67.611l14.592,44.669h-5.888l-3.584-11.647h-17.022l-3.584,11.647h-5.632l14.976-44.669H221.051z M224.7,95.77
	l-6.848-22.271h-0.128l-7.04,22.271H224.7z"/>
<path d="M249.02,72.475h-10.239v-4.863h26.11v4.863h-10.239v39.806h-5.632V72.475z"/>
<path d="M275.387,67.611h5.632v44.669h-5.632V67.611z"/>
<path d="M309.69,67.163c9.919,0,16.255,8.512,16.255,22.335c0,15.423-6.208,23.229-16.768,23.229
	c-9.919,0-16.255-8.511-16.255-22.334C292.922,74.971,299.13,67.163,309.69,67.163z M309.177,108.12
	c5.888,0,10.88-4.863,10.88-18.622c0-9.023-2.816-17.728-10.367-17.728c-5.888,0-10.88,4.864-10.88,18.623
	C298.81,99.417,301.626,108.12,309.177,108.12z"/>
<path d="M336.955,67.611h6.975l16.831,36.861h0.128V67.611h5.375v44.669h-6.976l-16.83-36.606h-0.128v36.606h-5.376V67.611z"/>
<path d="M398.841,74.075c-2.112-1.28-4.863-2.048-7.615-2.048c-4.224,0-6.976,2.879-6.976,6.655c0,2.88,1.151,4.672,7.551,8.383
	c6.912,3.968,9.216,7.872,9.216,12.991c0,7.104-4.416,12.671-12.991,12.671c-3.584,0-6.976-0.768-9.343-1.919v-5.824
	c2.56,1.536,5.887,2.88,8.511,2.88c5.056,0,7.936-3.392,7.936-7.039c0-3.456-0.896-5.44-6.911-9.088
	c-8.064-4.863-9.855-7.615-9.855-13.375c0-7.359,5.632-11.199,12.415-11.199c2.943,0,6.079,0.641,8.064,1.472V74.075z"/>
<g>
</g>
<g>
</g>
<g>
</g>
<g>
</g>
<g>
</g>
<g>
</g>
</svg>
