<?xml version="1.0" encoding="UTF-8" standalone="no"?>
<!-- Created with Inkscape (http://www.inkscape.org/) -->

<svg
   xmlns:dc="http://purl.org/dc/elements/1.1/"
   xmlns:cc="http://creativecommons.org/ns#"
   xmlns:rdf="http://www.w3.org/1999/02/22-rdf-syntax-ns#"
   xmlns:svg="http://www.w3.org/2000/svg"
   xmlns="http://www.w3.org/2000/svg"
   xmlns:sodipodi="http://sodipodi.sourceforge.net/DTD/sodipodi-0.dtd"
   xmlns:inkscape="http://www.inkscape.org/namespaces/inkscape"
   version="1.1"
   id="svg29"
   xml:space="preserve"
   width="289.43973"
   height="44.787998"
   viewBox="0 0 289.43973 44.787998"
   sodipodi:docname="acf 2.svg"
   inkscape:version="0.92.1 r15371"><metadata
     id="metadata35"><rdf:RDF><cc:Work
         rdf:about=""><dc:format>image/svg+xml</dc:format><dc:type
           rdf:resource="http://purl.org/dc/dcmitype/StillImage" /><dc:title></dc:title></cc:Work></rdf:RDF></metadata><defs
     id="defs33"><clipPath
       clipPathUnits="userSpaceOnUse"
       id="clipPath199"><path
         d="M 36.72,731.385 H 253.8 v 33.592 H 36.72 Z"
         id="path197"
         inkscape:connector-curvature="0" /></clipPath></defs><sodipodi:namedview
     pagecolor="#ffffff"
     bordercolor="#666666"
     borderopacity="1"
     objecttolerance="10"
     gridtolerance="10"
     guidetolerance="10"
     inkscape:pageopacity="0"
     inkscape:pageshadow="2"
     inkscape:window-width="1366"
     inkscape:window-height="680"
     id="namedview31"
     showgrid="false"
     fit-margin-top="0"
     fit-margin-left="0"
     fit-margin-right="0"
     fit-margin-bottom="0"
     inkscape:zoom="0.43276515"
     inkscape:cx="669.3603"
     inkscape:cy="-113.10009"
     inkscape:window-x="0"
     inkscape:window-y="44"
     inkscape:window-maximized="1"
     inkscape:current-layer="g37" /><g
     id="g37"
     inkscape:groupmode="layer"
     inkscape:label="2017factsheets_orr"
     transform="matrix(1.3333333,0,0,-1.3333333,-187.60333,809.69279)"><g
       id="g193"
       transform="translate(103.9825,-157.70679)"><g
         id="g195"
         clip-path="url(#clipPath199)"><g
           id="g201"
           transform="translate(40.4183,761.2361)"><path
             d="M 0,0 -0.761,2.489 -1.516,0 Z m 1.859,-1.967 c 0.162,-0.034 0.278,-0.179 0.278,-0.344 0,-0.155 -0.127,-0.283 -0.284,-0.283 H 0.4 c -0.158,0 -0.286,0.128 -0.286,0.283 0,0.165 0.118,0.307 0.278,0.338 l 0.241,0.049 -0.426,1.294 h -1.938 l -0.412,-1.294 0.219,-0.049 c 0.161,-0.034 0.278,-0.176 0.278,-0.338 0,-0.155 -0.128,-0.283 -0.284,-0.283 h -1.317 c -0.156,0 -0.284,0.128 -0.284,0.283 0,0.165 0.116,0.313 0.278,0.344 l 0.242,0.048 1.66,4.839 c 0.102,0.293 0.38,0.489 0.695,0.489 0.31,0 0.591,-0.196 0.687,-0.491 l 1.587,-4.837 z"
             style="fill:#254963;fill-opacity:1;fill-rule:nonzero;stroke:none"
             id="path203"
             inkscape:connector-curvature="0" /></g><g
           id="g205"
           transform="translate(45.1478,759.2972)"><path
             d="m 0,0 c 1.374,0 2.129,0.767 2.129,2.313 0,1.59 -0.718,2.251 -2.152,2.251 H -0.596 V 0 Z m -1.536,4.544 -0.346,0.06 c -0.162,0.026 -0.281,0.167 -0.281,0.332 0,0.156 0.128,0.284 0.284,0.284 h 1.921 c 1.973,0 3.12,-0.849 3.12,-2.889 C 3.162,0.122 1.666,-0.656 0,-0.656 h -1.879 c -0.156,0 -0.284,0.128 -0.284,0.287 0,0.162 0.119,0.301 0.281,0.33 l 0.346,0.059 z"
             style="fill:#254963;fill-opacity:1;fill-rule:nonzero;stroke:none"
             id="path207"
             inkscape:connector-curvature="0" /></g><g
           id="g209"
           transform="translate(50.5382,764.517)"><path
             d="m 0,0 c 0.284,0 0.539,-0.167 0.65,-0.431 l 1.363,-3.242 1.376,3.242 C 3.503,-0.167 3.758,0 4.045,0 H 5.311 C 5.47,0 5.597,-0.127 5.597,-0.284 5.597,-0.448 5.478,-0.59 5.316,-0.616 L 4.95,-0.676 V -5.2 l 0.353,-0.059 c 0.161,-0.026 0.28,-0.168 0.28,-0.33 0,-0.158 -0.127,-0.286 -0.283,-0.286 H 3.667 c -0.159,0 -0.286,0.128 -0.286,0.286 0,0.162 0.122,0.304 0.28,0.33 L 4.017,-5.2 v 4.213 L 4.011,-0.985 2.529,-4.326 C 2.427,-4.555 2.2,-4.7 1.95,-4.7 c -0.255,0 -0.482,0.145 -0.582,0.374 l -1.433,3.282 -0.006,-0.003 V -5.2 l 0.352,-0.059 c 0.162,-0.026 0.281,-0.168 0.281,-0.33 0,-0.158 -0.128,-0.286 -0.284,-0.286 H -1.22 c -0.157,0 -0.285,0.128 -0.285,0.286 0,0.162 0.12,0.304 0.282,0.33 l 0.371,0.059 v 4.524 l -0.366,0.06 c -0.162,0.026 -0.281,0.168 -0.281,0.332 0,0.157 0.128,0.284 0.284,0.284 z"
             style="fill:#254963;fill-opacity:1;fill-rule:nonzero;stroke:none"
             id="path211"
             inkscape:connector-curvature="0" /></g><g
           id="g213"
           transform="translate(57.5733,759.3171)"><path
             d="m 0,0 v 4.525 l -0.372,0.059 c -0.161,0.026 -0.281,0.167 -0.281,0.332 0,0.156 0.128,0.284 0.284,0.284 H 1.306 C 1.462,5.2 1.59,5.072 1.59,4.916 1.59,4.751 1.471,4.61 1.309,4.584 L 0.94,4.525 V 0 l 0.369,-0.059 c 0.162,-0.026 0.281,-0.168 0.281,-0.33 0,-0.159 -0.128,-0.287 -0.284,-0.287 h -1.675 c -0.156,0 -0.284,0.128 -0.284,0.287 0,0.162 0.12,0.304 0.281,0.33 z"
             style="fill:#254963;fill-opacity:1;fill-rule:nonzero;stroke:none"
             id="path215"
             inkscape:connector-curvature="0" /></g><g
           id="g217"
           transform="translate(64.207,763.8416)"><path
             d="m 0,0 -0.378,0.063 c -0.161,0.025 -0.281,0.164 -0.281,0.329 0,0.159 0.128,0.286 0.284,0.286 H 1.124 C 1.283,0.678 1.411,0.551 1.411,0.392 1.411,0.227 1.292,0.088 1.13,0.06 L 0.784,0 v -4.822 c 0,-0.242 -0.196,-0.438 -0.441,-0.438 -0.272,0 -0.516,0.142 -0.653,0.381 l -2.5,4.374 v -4.02 l 0.369,-0.059 c 0.162,-0.026 0.281,-0.168 0.281,-0.329 0,-0.159 -0.128,-0.287 -0.284,-0.287 h -1.524 c -0.156,0 -0.284,0.128 -0.284,0.287 0,0.161 0.119,0.303 0.281,0.329 l 0.372,0.059 V 0 l -0.372,0.063 c -0.162,0.025 -0.281,0.164 -0.281,0.329 0,0.159 0.128,0.286 0.284,0.286 h 0.988 c 0.292,0 0.55,-0.156 0.69,-0.414 L 0,-3.948 Z"
             style="fill:#254963;fill-opacity:1;fill-rule:nonzero;stroke:none"
             id="path219"
             inkscape:connector-curvature="0" /></g><g
           id="g221"
           transform="translate(66.9747,759.3171)"><path
             d="m 0,0 v 4.525 l -0.372,0.059 c -0.161,0.026 -0.281,0.167 -0.281,0.332 0,0.156 0.128,0.284 0.284,0.284 H 1.306 C 1.462,5.2 1.59,5.072 1.59,4.916 1.59,4.751 1.47,4.61 1.309,4.584 L 0.94,4.525 V 0 L 1.309,-0.059 C 1.47,-0.085 1.59,-0.227 1.59,-0.389 1.59,-0.548 1.462,-0.676 1.306,-0.676 h -1.675 c -0.156,0 -0.284,0.128 -0.284,0.287 0,0.162 0.12,0.304 0.281,0.33 z"
             style="fill:#254963;fill-opacity:1;fill-rule:nonzero;stroke:none"
             id="path223"
             inkscape:connector-curvature="0" /></g><g
           id="g225"
           transform="translate(71.428,763.9834)"><path
             d="m 0,0 c -0.59,0 -1.039,-0.281 -1.039,-0.797 0,-1.3 2.737,-1.042 2.737,-2.916 0,-1.107 -0.875,-1.756 -2.027,-1.756 -0.602,0 -1.717,0.074 -1.717,0.865 v 0.33 c 0,0.207 0.17,0.377 0.38,0.377 0.224,0 0.423,-0.148 0.488,-0.363 l 0.134,-0.437 c 0.122,-0.051 0.343,-0.105 0.516,-0.105 0.647,0 1.28,0.238 1.28,0.899 0,1.323 -2.724,1.101 -2.724,2.944 0,0.987 0.786,1.62 1.938,1.62 0.511,0 1.525,-0.096 1.525,-0.823 v -0.332 c 0,-0.207 -0.171,-0.378 -0.378,-0.378 -0.224,0 -0.423,0.148 -0.489,0.361 L 0.491,-0.074 C 0.372,-0.026 0.173,0 0,0"
             style="fill:#254963;fill-opacity:1;fill-rule:nonzero;stroke:none"
             id="path227"
             inkscape:connector-curvature="0" /></g><g
           id="g229"
           transform="translate(73.638,764.0486)"><path
             d="M 0,0 C 0,0.258 0.21,0.468 0.469,0.468 H 4.474 C 4.732,0.468 4.942,0.258 4.942,0 v -0.44 c 0,-0.204 -0.165,-0.369 -0.366,-0.369 -0.21,0 -0.4,0.142 -0.455,0.352 L 4.048,-0.173 H 2.941 v -4.559 l 0.403,-0.062 c 0.162,-0.025 0.281,-0.165 0.281,-0.326 0,-0.159 -0.128,-0.287 -0.284,-0.287 H 1.598 c -0.159,0 -0.287,0.128 -0.287,0.287 0,0.161 0.123,0.301 0.285,0.326 l 0.405,0.062 v 4.559 H 0.895 L 0.823,-0.457 C 0.769,-0.667 0.579,-0.809 0.369,-0.809 0.165,-0.809 0,-0.644 0,-0.44 Z"
             style="fill:#254963;fill-opacity:1;fill-rule:nonzero;stroke:none"
             id="path231"
             inkscape:connector-curvature="0" /></g><g
           id="g233"
           transform="translate(80.701,763.8615)"><path
             d="m 0,0 v -4.544 l 0.378,-0.06 C 0.539,-4.63 0.659,-4.771 0.659,-4.933 0.659,-5.092 0.531,-5.22 0.375,-5.22 h -1.681 c -0.159,0 -0.286,0.128 -0.286,0.287 0,0.162 0.119,0.303 0.281,0.329 l 0.371,0.06 v 4.524 l -0.371,0.06 c -0.162,0.025 -0.281,0.167 -0.281,0.332 0,0.156 0.127,0.284 0.286,0.284 h 2.084 c 1.152,0 1.907,-0.381 1.907,-1.468 0,-0.792 -0.497,-1.328 -1.283,-1.496 v -0.005 c 0.494,-0.082 0.693,-0.505 0.994,-1.17 0.38,-0.84 0.507,-1.121 0.967,-1.152 0.16,-0.012 0.29,-0.133 0.29,-0.293 0,-0.161 -0.13,-0.292 -0.29,-0.292 h -0.47 c -0.943,0 -1.139,0.982 -1.355,1.439 -0.329,0.696 -0.573,1.053 -1.07,1.164 -0.156,0.034 -0.32,0.176 -0.32,0.355 0,0.179 0.142,0.32 0.349,0.332 0.746,0.045 1.198,0.323 1.198,1.067 C 1.695,-0.235 1.223,0 0.415,0 Z"
             style="fill:#254963;fill-opacity:1;fill-rule:nonzero;stroke:none"
             id="path235"
             inkscape:connector-curvature="0" /></g><g
           id="g237"
           transform="translate(87.7044,761.2361)"><path
             d="M 0,0 -0.761,2.489 -1.516,0 Z m 1.859,-1.967 c 0.162,-0.034 0.278,-0.179 0.278,-0.344 0,-0.155 -0.127,-0.283 -0.284,-0.283 H 0.4 c -0.158,0 -0.286,0.128 -0.286,0.283 0,0.165 0.118,0.307 0.278,0.338 l 0.241,0.049 -0.426,1.294 h -1.938 l -0.412,-1.294 0.219,-0.049 c 0.161,-0.034 0.278,-0.176 0.278,-0.338 0,-0.155 -0.128,-0.283 -0.284,-0.283 h -1.317 c -0.156,0 -0.284,0.128 -0.284,0.283 0,0.165 0.116,0.313 0.278,0.344 l 0.242,0.048 1.66,4.839 c 0.102,0.293 0.38,0.489 0.695,0.489 0.31,0 0.591,-0.196 0.687,-0.491 l 1.587,-4.837 z"
             style="fill:#254963;fill-opacity:1;fill-rule:nonzero;stroke:none"
             id="path239"
             inkscape:connector-curvature="0" /></g><g
           id="g241"
           transform="translate(89.6201,764.0486)"><path
             d="M 0,0 C 0,0.258 0.21,0.468 0.469,0.468 H 4.474 C 4.732,0.468 4.942,0.258 4.942,0 v -0.44 c 0,-0.204 -0.165,-0.369 -0.366,-0.369 -0.21,0 -0.4,0.142 -0.455,0.352 L 4.048,-0.173 H 2.941 v -4.559 l 0.403,-0.062 c 0.162,-0.025 0.281,-0.165 0.281,-0.326 0,-0.159 -0.128,-0.287 -0.284,-0.287 H 1.598 c -0.159,0 -0.287,0.128 -0.287,0.287 0,0.161 0.123,0.301 0.285,0.326 l 0.405,0.062 v 4.559 H 0.895 L 0.823,-0.457 C 0.769,-0.667 0.579,-0.809 0.369,-0.809 0.165,-0.809 0,-0.644 0,-0.44 Z"
             style="fill:#254963;fill-opacity:1;fill-rule:nonzero;stroke:none"
             id="path243"
             inkscape:connector-curvature="0" /></g><g
           id="g245"
           transform="translate(95.7435,759.3171)"><path
             d="m 0,0 v 4.525 l -0.372,0.059 c -0.161,0.026 -0.281,0.167 -0.281,0.332 0,0.156 0.128,0.284 0.284,0.284 H 1.306 C 1.462,5.2 1.59,5.072 1.59,4.916 1.59,4.751 1.471,4.61 1.309,4.584 L 0.94,4.525 V 0 l 0.369,-0.059 c 0.162,-0.026 0.281,-0.168 0.281,-0.33 0,-0.159 -0.128,-0.287 -0.284,-0.287 h -1.675 c -0.156,0 -0.284,0.128 -0.284,0.287 0,0.162 0.12,0.304 0.281,0.33 z"
             style="fill:#254963;fill-opacity:1;fill-rule:nonzero;stroke:none"
             id="path247"
             inkscape:connector-curvature="0" /></g><g
           id="g249"
           transform="translate(100.7491,763.9436)"><path
             d="m 0,0 c -1.164,0 -1.643,-0.97 -1.643,-2.364 0,-1.38 0.437,-2.368 1.586,-2.368 1.158,0 1.641,0.977 1.641,2.368 C 1.584,-0.985 1.147,0 0,0 m 0.02,0.701 c 1.655,0 2.597,-1.172 2.597,-2.94 0,-1.828 -0.937,-3.191 -2.694,-3.191 -1.649,0 -2.597,1.198 -2.597,2.944 0,1.845 0.934,3.187 2.694,3.187"
             style="fill:#254963;fill-opacity:1;fill-rule:nonzero;stroke:none"
             id="path251"
             inkscape:connector-curvature="0" /></g><g
           id="g253"
           transform="translate(108.3668,763.8416)"><path
             d="m 0,0 -0.378,0.063 c -0.161,0.025 -0.281,0.164 -0.281,0.329 0,0.159 0.128,0.286 0.284,0.286 H 1.124 C 1.283,0.678 1.411,0.551 1.411,0.392 1.411,0.227 1.292,0.088 1.13,0.06 L 0.784,0 v -4.822 c 0,-0.242 -0.196,-0.438 -0.441,-0.438 -0.272,0 -0.516,0.142 -0.653,0.381 l -2.5,4.374 v -4.02 l 0.369,-0.059 c 0.162,-0.026 0.281,-0.168 0.281,-0.329 0,-0.159 -0.128,-0.287 -0.284,-0.287 h -1.524 c -0.156,0 -0.284,0.128 -0.284,0.287 0,0.161 0.119,0.303 0.281,0.329 l 0.372,0.059 V 0 l -0.372,0.063 c -0.162,0.025 -0.281,0.164 -0.281,0.329 0,0.159 0.128,0.286 0.284,0.286 h 0.988 c 0.292,0 0.55,-0.156 0.69,-0.414 L 0,-3.948 Z"
             style="fill:#254963;fill-opacity:1;fill-rule:nonzero;stroke:none"
             id="path255"
             inkscape:connector-curvature="0" /></g><g
           id="g257"
           transform="translate(114.5157,761.3069)"><path
             d="M 0,0 V -1.99 L 0.428,-2.052 C 0.59,-2.077 0.71,-2.217 0.71,-2.378 0.71,-2.537 0.582,-2.665 0.425,-2.665 h -1.731 c -0.159,0 -0.287,0.128 -0.287,0.287 0,0.161 0.12,0.303 0.282,0.329 l 0.374,0.059 v 4.525 l -0.374,0.059 c -0.162,0.026 -0.282,0.168 -0.282,0.332 0,0.157 0.128,0.284 0.287,0.284 h 3.37 C 2.322,3.21 2.532,3 2.532,2.742 V 2.282 C 2.532,2.095 2.381,1.944 2.197,1.944 2.004,1.944 1.828,2.072 1.771,2.265 L 1.686,2.555 H 0 V 0.693 h 1.473 c 0.19,0 0.346,-0.157 0.346,-0.347 C 1.819,0.156 1.663,0 1.473,0 Z"
             style="fill:#254963;fill-opacity:1;fill-rule:nonzero;stroke:none"
             id="path259"
             inkscape:connector-curvature="0" /></g><g
           id="g261"
           transform="translate(120.2661,763.9436)"><path
             d="m 0,0 c -1.164,0 -1.643,-0.97 -1.643,-2.364 0,-1.38 0.437,-2.368 1.586,-2.368 1.158,0 1.641,0.977 1.641,2.368 C 1.584,-0.985 1.147,0 0,0 m 0.02,0.701 c 1.655,0 2.597,-1.172 2.597,-2.94 0,-1.828 -0.937,-3.191 -2.694,-3.191 -1.649,0 -2.597,1.198 -2.597,2.944 0,1.845 0.934,3.187 2.694,3.187"
             style="fill:#254963;fill-opacity:1;fill-rule:nonzero;stroke:none"
             id="path263"
             inkscape:connector-curvature="0" /></g><g
           id="g265"
           transform="translate(125.2242,763.8615)"><path
             d="m 0,0 v -4.544 l 0.377,-0.06 C 0.539,-4.63 0.659,-4.771 0.659,-4.933 0.659,-5.092 0.531,-5.22 0.374,-5.22 h -1.68 c -0.159,0 -0.287,0.128 -0.287,0.287 0,0.162 0.12,0.303 0.282,0.329 l 0.371,0.06 v 4.524 l -0.371,0.06 c -0.162,0.025 -0.282,0.167 -0.282,0.332 0,0.156 0.128,0.284 0.287,0.284 h 2.083 c 1.153,0 1.908,-0.381 1.908,-1.468 0,-0.792 -0.497,-1.328 -1.283,-1.496 v -0.005 c 0.494,-0.082 0.693,-0.505 0.993,-1.17 0.38,-0.84 0.508,-1.121 0.968,-1.152 0.159,-0.012 0.29,-0.133 0.29,-0.293 0,-0.161 -0.131,-0.292 -0.29,-0.292 H 2.892 c -0.942,0 -1.138,0.982 -1.354,1.439 -0.329,0.696 -0.573,1.053 -1.07,1.164 -0.156,0.034 -0.321,0.176 -0.321,0.355 0,0.179 0.142,0.32 0.35,0.332 0.746,0.045 1.197,0.323 1.197,1.067 C 1.694,-0.235 1.223,0 0.414,0 Z"
             style="fill:#254963;fill-opacity:1;fill-rule:nonzero;stroke:none"
             id="path267"
             inkscape:connector-curvature="0" /></g><g
           id="g269"
           transform="translate(46.7979,740.1875)"><path
             d="m 0,0 v -2.858 c 0,-3.441 -1.721,-5.407 -5.039,-5.407 -3.318,0 -5.039,1.966 -5.039,5.407 V 8.327 c 0,3.441 1.721,5.407 5.039,5.407 C -1.721,13.734 0,11.768 0,8.327 v -2.09 h -3.195 v 2.305 c 0,1.536 -0.677,2.12 -1.752,2.12 -1.075,0 -1.751,-0.584 -1.751,-2.12 V -3.073 c 0,-1.536 0.676,-2.089 1.751,-2.089 1.075,0 1.752,0.553 1.752,2.089 V 0 Z"
             style="fill:#254963;fill-opacity:1;fill-rule:nonzero;stroke:none"
             id="path271"
             inkscape:connector-curvature="0" /></g><g
           id="g273"
           transform="translate(52.6978,732.1679)"><path
             d="M 0,0 H -3.38 V 21.509 H 0 v -9.218 h 3.84 v 9.218 H 7.282 V 0 H 3.84 V 9.218 H 0 Z"
             style="fill:#254963;fill-opacity:1;fill-rule:nonzero;stroke:none"
             id="path275"
             inkscape:connector-curvature="0" /></g><path
           d="m 62.899,753.676 h 3.38 v -21.509 h -3.38 z"
           style="fill:#254963;fill-opacity:1;fill-rule:nonzero;stroke:none"
           id="path277"
           inkscape:connector-curvature="0" /><g
           id="g279"
           transform="translate(69.1977,753.6764)"><path
             d="m 0,0 h 3.38 v -18.436 h 5.561 v -3.073 H 0 Z"
             style="fill:#254963;fill-opacity:1;fill-rule:nonzero;stroke:none"
             id="path281"
             inkscape:connector-curvature="0" /></g><g
           id="g283"
           transform="translate(83.4547,750.6039)"><path
             d="m 0,0 v -15.364 h 1.905 c 1.076,0 1.72,0.554 1.72,2.09 V -2.09 C 3.625,-0.553 2.981,0 1.905,0 Z m -3.38,3.073 h 5.346 c 3.38,0 5.039,-1.875 5.039,-5.317 v -10.877 c 0,-3.441 -1.659,-5.315 -5.039,-5.315 H -3.38 Z"
             style="fill:#254963;fill-opacity:1;fill-rule:nonzero;stroke:none"
             id="path285"
             inkscape:connector-curvature="0" /></g><g
           id="g287"
           transform="translate(96.4524,750.6039)"><path
             d="m 0,0 v -6.606 h 1.321 c 1.26,0 2.028,0.553 2.028,2.273 v 2.12 C 3.349,-0.676 2.827,0 1.628,0 Z m 3.687,-18.436 c -0.184,0.553 -0.307,0.891 -0.307,2.642 v 3.38 c 0,1.998 -0.676,2.735 -2.213,2.735 H 0 v -8.757 H -3.38 V 3.073 h 5.101 c 3.502,0 5.008,-1.629 5.008,-4.948 v -1.69 c 0,-2.212 -0.707,-3.656 -2.213,-4.363 1.69,-0.706 2.244,-2.335 2.244,-4.578 v -3.318 c 0,-1.045 0.03,-1.813 0.368,-2.612 z"
             style="fill:#254963;fill-opacity:1;fill-rule:nonzero;stroke:none"
             id="path289"
             inkscape:connector-curvature="0" /></g><g
           id="g291"
           transform="translate(109.2349,744.6121)"><path
             d="M 0,0 H 4.64 V -3.073 H 0 v -6.299 h 5.838 v -3.072 H -3.38 V 9.064 H 5.838 V 5.992 H 0 Z"
             style="fill:#254963;fill-opacity:1;fill-rule:nonzero;stroke:none"
             id="path293"
             inkscape:connector-curvature="0" /></g><g
           id="g295"
           transform="translate(120.604,747.746)"><path
             d="M 0,0 V -15.578 H -3.042 V 5.93 h 4.24 L 4.67,-6.944 V 5.93 H 7.681 V -15.578 H 4.209 Z"
             style="fill:#254963;fill-opacity:1;fill-rule:nonzero;stroke:none"
             id="path297"
             inkscape:connector-curvature="0" /></g><g
           id="g299"
           transform="translate(141.6886,731.3854)"><path
             d="m 0,0 c 1.129,0 2.228,0.129 3.299,0.382 1.067,0.257 1.975,0.56 2.719,0.908 0.748,0.344 1.523,0.806 2.327,1.387 0.805,0.578 1.425,1.062 1.852,1.448 0.429,0.382 1.414,1.326 1.729,1.413 0.316,0.085 8.103,-5.379 8.438,-5.442 0.507,-0.096 1.326,0.838 0.602,1.511 -0.545,0.506 -6.798,5.743 -6.528,6.402 0.268,0.577 7.003,6.667 7.146,6.792 1.157,1.014 0.363,2.282 -0.525,1.799 C 20.651,16.379 8.706,6.956 8.404,6.687 8.102,6.417 7.639,6.035 7.014,5.545 6.389,5.056 5.818,4.676 5.287,4.405 4.756,4.133 4.137,3.887 3.421,3.66 2.709,3.435 1.997,3.321 1.288,3.321 c -1.596,0 -2.921,0.499 -3.976,1.502 -1.052,1 -1.581,2.21 -1.581,3.626 0,0.768 0.137,1.494 0.406,2.18 0.271,0.685 0.707,1.358 1.314,2.022 0.597,0.662 1.118,1.185 1.556,1.569 0.433,0.384 1.075,0.909 1.92,1.57 0.238,0.194 0.421,0.34 0.542,0.429 l 2.869,2.282 c 0.165,0.135 0.541,0.433 1.126,0.893 0.593,0.46 1.002,0.787 1.236,0.982 0.231,0.197 0.61,0.52 1.127,0.97 0.518,0.454 0.905,0.823 1.156,1.11 0.248,0.285 0.553,0.661 0.922,1.128 0.371,0.464 0.641,0.893 0.815,1.277 0.17,0.382 0.327,0.816 0.462,1.301 0.134,0.478 0.205,0.961 0.205,1.442 0,1.717 -0.686,3.144 -2.06,4.28 -1.366,1.139 -3.19,1.707 -5.462,1.707 -2.577,0 -4.747,-0.665 -6.508,-2.001 -1.761,-1.33 -2.642,-3.052 -2.642,-5.159 0,-1.642 0.587,-3.261 1.761,-4.856 0.465,-0.635 1.401,-1.673 2.8,-3.119 C -0.783,18.41 -1.02,18.227 -1.436,17.903 -1.848,17.578 -2.148,17.349 -2.329,17.213 -2.508,17.077 -2.814,16.821 -3.254,16.445 -3.692,16.067 -4.02,15.761 -4.246,15.52 -4.47,15.277 -4.781,14.942 -5.171,14.513 -5.564,14.085 -5.874,13.696 -6.099,13.349 -6.323,13.003 -6.58,12.583 -6.857,12.086 -7.133,11.589 -7.352,11.112 -7.501,10.65 -7.649,10.192 -7.777,9.683 -7.884,9.127 -7.992,8.569 -8.041,8.004 -8.041,7.432 -8.041,5.263 -7.325,3.481 -5.895,2.09 -4.466,0.696 -2.499,0 0,0 m -0.732,23.956 c -0.295,0.385 -0.502,0.759 -0.614,1.118 -0.108,0.362 -0.166,0.746 -0.166,1.151 0,1.118 0.492,2.083 1.478,2.904 0.985,0.821 2.159,1.231 3.512,1.231 1.22,0 2.219,-0.345 2.994,-1.039 0.774,-0.69 1.163,-1.506 1.163,-2.438 0,-0.286 -0.037,-0.56 -0.114,-0.827 C 7.449,25.795 7.362,25.553 7.275,25.334 7.183,25.115 7.021,24.87 6.79,24.601 6.555,24.33 6.361,24.106 6.199,23.936 6.044,23.76 5.773,23.518 5.388,23.201 5.003,22.885 4.709,22.644 4.507,22.478 4.303,22.312 3.938,22.029 3.411,21.63 2.882,21.231 2.491,20.932 2.237,20.736 c -0.256,0.273 -0.63,0.653 -1.12,1.144 -0.486,0.486 -0.846,0.861 -1.074,1.117 -0.225,0.254 -0.484,0.574 -0.775,0.959"
             style="fill:#254963;fill-opacity:1;fill-rule:nonzero;stroke:none"
             id="path301"
             inkscape:connector-curvature="0" /></g><g
           id="g303"
           transform="translate(159.8641,755.4354)"><path
             d="m 0,0 c -0.778,0.193 -1.563,0.299 -2.344,0.278 -2.75,-0.078 -4.975,-1.555 -5.542,-3.681 -0.252,-0.955 -0.231,-2.038 0.049,-2.968 -2.537,-0.55 -4.615,-2.441 -5.205,-5.069 -0.45,-3.438 0.715,-5.766 1.036,-5.86 0.32,-0.092 0.556,0.236 0.508,0.615 -0.111,0.906 -0.737,2.724 0.517,4.702 1.125,1.77 3.504,3.578 5.868,3.91 0,0 -0.018,-0.007 0.143,0.019 0.16,0.025 0.262,0.305 0.227,0.418 l -0.036,0.113 c -0.007,0.019 -0.575,1.826 -0.241,3.094 0.331,1.239 1.642,2.048 3.177,2.179 C 2.239,-1.964 3.866,-6.468 4,-6.636 4.298,-7.013 4.531,-6.547 4.531,-6.547 4.764,-6.208 3.906,-1.024 0,0"
             style="fill:#254963;fill-opacity:1;fill-rule:nonzero;stroke:none"
             id="path305"
             inkscape:connector-curvature="0" /></g><g
           id="g307"
           transform="translate(171.7591,744.1205)"><path
             d="M 0,0 H 4.363 V -3.073 H 0 v -8.879 H -3.38 V 9.556 H 5.561 V 6.483 H 0 Z"
             style="fill:#254963;fill-opacity:1;fill-rule:nonzero;stroke:none"
             id="path309"
             inkscape:connector-curvature="0" /></g><g
           id="g311"
           transform="translate(182.2372,738.9892)"><path
             d="M 0,0 H 3.257 L 1.628,10.877 Z M 7.712,-6.821 H 4.301 L 3.718,-2.919 H -0.43 l -0.584,-3.902 h -3.104 l 3.442,21.508 h 4.947 z"
             style="fill:#254963;fill-opacity:1;fill-rule:nonzero;stroke:none"
             id="path313"
             inkscape:connector-curvature="0" /></g><g
           id="g315"
           transform="translate(199.1064,738.4053)"><path
             d="M 0,0 2.304,15.271 H 7.005 V -6.237 H 3.81 V 9.187 L 1.475,-6.237 H -1.721 L -4.24,8.972 V -6.237 h -2.95 v 21.508 h 4.701 z"
             style="fill:#254963;fill-opacity:1;fill-rule:nonzero;stroke:none"
             id="path317"
             inkscape:connector-curvature="0" /></g><path
           d="m 209.031,753.676 h 3.38 v -21.509 h -3.38 z"
           style="fill:#254963;fill-opacity:1;fill-rule:nonzero;stroke:none"
           id="path319"
           inkscape:connector-curvature="0" /><g
           id="g321"
           transform="translate(215.3303,753.6764)"><path
             d="m 0,0 h 3.38 v -18.436 h 5.561 v -3.073 H 0 Z"
             style="fill:#254963;fill-opacity:1;fill-rule:nonzero;stroke:none"
             id="path323"
             inkscape:connector-curvature="0" /></g><path
           d="m 226.208,753.676 h 3.38 v -21.509 h -3.38 z"
           style="fill:#254963;fill-opacity:1;fill-rule:nonzero;stroke:none"
           id="path325"
           inkscape:connector-curvature="0" /><g
           id="g327"
           transform="translate(235.886,744.6121)"><path
             d="M 0,0 H 4.64 V -3.073 H 0 v -6.299 h 5.838 v -3.072 H -3.38 V 9.064 H 5.838 V 5.992 H 0 Z"
             style="fill:#254963;fill-opacity:1;fill-rule:nonzero;stroke:none"
             id="path329"
             inkscape:connector-curvature="0" /></g><g
           id="g331"
           transform="translate(248.7918,753.9219)"><path
             d="M 0,0 C 3.288,0 4.977,-1.966 4.977,-5.408 V -6.083 H 1.782 v 0.89 c 0,1.536 -0.615,2.12 -1.69,2.12 -1.075,0 -1.69,-0.584 -1.69,-2.12 0,-4.424 6.606,-5.254 6.606,-11.399 0,-3.441 -1.72,-5.408 -5.039,-5.408 -3.319,0 -5.039,1.967 -5.039,5.408 v 1.321 h 3.195 v -1.536 c 0,-1.537 0.676,-2.09 1.752,-2.09 1.075,0 1.752,0.553 1.752,2.09 0,4.424 -6.606,5.254 -6.606,11.399 C -4.977,-1.966 -3.288,0 0,0"
             style="fill:#254963;fill-opacity:1;fill-rule:nonzero;stroke:none"
             id="path333"
             inkscape:connector-curvature="0" /></g></g></g></g></svg>