<?xml version="1.0" encoding="UTF-8"?>
<svg width="1010" height="454" version="1.1" viewBox="0 0 1010 454" xml:space="preserve" xmlns="http://www.w3.org/2000/svg" xmlns:cc="http://creativecommons.org/ns#" xmlns:dc="http://purl.org/dc/elements/1.1/" xmlns:rdf="http://www.w3.org/1999/02/22-rdf-syntax-ns#"><title>Corporation for National and Community Service (CNCS) Logo</title><metadata><rdf:RDF><cc:Work rdf:about=""><dc:format>image/svg+xml</dc:format><dc:type rdf:resource="http://purl.org/dc/dcmitype/StillImage"/><dc:title>Corporation for National and Community Service (CNCS) Logo</dc:title></cc:Work></rdf:RDF></metadata>
<polygon transform="translate(-391 -478.88)" points="1376 873.76 1384.9 893.04 1384.9 926.72 1299.6 926.72 1293.8 873.76 1299.6 820.78 1384.9 820.78 1384.9 854.49" fill="#ec2418"/>
<polygon transform="translate(-391 -478.88)" points="1299.6 893.04 1295.7 873.76 1299.6 854.49 1384.9 854.49 1384.9 893.04" fill="#fff"/>
<polygon transform="translate(-391 -478.88)" points="1026.4 820.78 1299.6 820.78 1299.6 926.72 1026.4 926.72" fill="#00449f"/><g fill="#fff">
<polygon transform="translate(-391 -478.88)" points="1102.6 912.54 1076.3 893.46 1050 912.54 1060.1 881.66 1033.8 862.53 1066.3 862.53 1076.3 831.62 1086.4 862.53 1118.9 862.53 1092.6 881.66"/>
<polygon transform="translate(-391 -478.88)" points="1190.1 912.54 1163.8 893.46 1137.5 912.54 1147.6 881.66 1121.3 862.53 1153.8 862.53 1163.8 831.62 1173.9 862.53 1206.4 862.53 1180.1 881.66"/>
<polygon transform="translate(-391 -478.88)" points="1277.6 912.54 1251.3 893.46 1225 912.54 1235 881.66 1208.7 862.53 1241.3 862.53 1251.3 831.62 1261.3 862.53 1293.8 862.53 1267.6 881.66"/></g><g>
<path d="m926.03 179.13-69.846-73.141h-3.3008c-16.045-0.23438-24.305 17.402-24.305 31.277 0 24.699 17.934 52.446 60.873 52.446 13.686 0 25.25-3.2891 36.578-10.583zm-23.123-83.73c6.1328-7.7578 14.627-9.875 24.062-9.875 6.373 0 12.268 1.4102 19.35 2.5898 7.0742 1.1719 12.978 2.5859 20.053 2.5859 26.432 0 20.527-15.762 25.955-15.762 1.6543 0 2.1269 1.6484 2.1269 4.2344v12.23c0 4.4688-3.7812 12.469-21 12.469-4.955 0-11.094-0.94141-20.291-3.2969l-0.4726 0.47266c6.8418 7.5273 10.146 17.168 10.146 27.516 0 16.699-7.5547 32.691-19.346 44.219 6.6016 5.1719 16.746 11.286 25.479 11.286 5.8964 0 11.801-2.3477 16.279-6.3486l3.3007 4.2354c-4.7168 3.5273-21.23 15.52-26.891 15.52-8.0234 0-23.125-9.6406-29.734-14.109-14.629 10.582-32.557 14.109-50.256 14.109-33.031 0-66.775-15.051-66.775-52.681 0-22.812 15.34-39.98 37.279-45.391-5.4239-7.5273-11.557-17.875-11.557-27.283 0-19.521 20.053-32.928 38.461-32.928 7.0742 0 15.336 0.93945 20.996 5.4121l-2.5977 11.992c-0.707 3.293-1.1797 6.1152-3.3008 6.1152-1.414 0-1.6504-0.94141-1.6504-2.1152 0-8.7012-13.447-11.525-20.291-11.525-10.617 0-21.238 4.9375-21.238 19.051 0 19.52 62.057 84.191 87.064 100.66 9.6719-8.4648 14.391-21.637 14.391-34.105 0-19.988-10.613-40.688-32.793-40.688-5.666 0-9.205 2.1172-13.688 5.4141z"/>
<path d="m96.879 169.02h0.33203v-59.238c0-7.5625-0.33203-17.277-5.2637-17.277h-8.7188v-4.9375h30.104v4.9375h-6.0879c-1.9727 0-3.7793 0.82031-3.7793 3.2852v95.126c0 1.4766-0.16602 2.6289-1.3125 2.6289-0.49414 0-1.1582-0.5-2.3066-1.8164l-1.9727-2.293-71.246-85.907h-0.33203v66.32c0 7.5625 0.33203 17.278 5.2617 17.278h8.7246v4.9336h-30.109v-4.9336h6.0898c1.9707 0 3.7812-0.82422 3.7812-3.2969v-72.403c0-13.328-1.4883-18.922-9.2148-18.922h-5.0977v-4.9375h23.854z"/>
<path d="m162.93 103.2-18.266 43.773h32.744zm-20.572 49.695c-3.6172 9.2227-9.5391 25.344-9.5391 29.958 0 3.4531 1.6406 4.2773 4.1152 4.2773h10.365v4.9336h-33.238v-4.9336h3.2852c2.4707 0 4.9394-0.49609 5.9219-2.6367l41.633-98.567c4.1152-0.99219 8.7246-2.1367 9.707-2.1367 0.82617 0 1.6445 0.49219 1.6445 1.6406 0 2.1406-2.959 1.9766-2.959 5.1055 0 7.0703 20.405 62.027 28.465 83.926 3.7832 10.364 5.7598 12.669 10.037 12.669h4.9414v4.9336h-36.862v-4.9336h8.8814c1.1562 0 2.3047-0.49609 2.3047-1.6484s-4.6094-12.669-11.348-32.587h-37.355z"/>
<path d="m260.91 163.92c0 16.953 0.32617 23.208 4.6094 23.208h12.668v4.9336h-46.074v-4.9336h12.338c1.8106 0 2.4766-1.1562 2.4766-2.6367v-91.001h-4.1172c-19.252 0-28.631 3.4531-30.271 8.3984-0.33008 0.98828-0.99414 2.3047-2.3027 2.3047-0.99805 0-1.8125-0.5-1.8125-1.6484 0-0.98828 2.3066-8.2266 4.5996-14.977h81.775c2.3047 6.75 4.6074 13.988 4.6074 14.977 0 1.1484-0.81445 1.6484-1.8066 1.6484-1.3125 0-1.9766-1.3164-2.3027-2.3047-1.6445-4.9453-11.02-8.3984-30.275-8.3984h-4.1113v70.43z"/>
<path d="m340.77 163.92c0 16.953 0.33203 23.208 4.6094 23.208h9.3887v4.9336h-38.182v-4.9336h7.7305c1.8203 0 2.4766-1.1562 2.4766-2.6367v-68.786c0-16.941-0.33398-23.199-4.6113-23.199h-9.709v-4.9375h38.18v4.9375h-7.4062c-1.8125 0-2.4766 1.1484-2.4766 2.6289v68.785z"/>
<path d="m376.16 136.77c0 37.191 22.049 52.989 41.463 52.989 22.213 0 37.191-16.946 37.191-46.899 0-37.188-22.055-52.988-41.471-52.988-22.209 0-37.184 16.957-37.184 46.898zm-13.989 4.6055c0-31.094 22.049-56.934 54.793-56.934 33.07 0 51.83 21.723 51.83 53.805 0 31.109-22.043 56.946-54.789 56.946-33.076 0-51.834-21.728-51.834-53.817z"/>
<path d="m566.92 169.02h0.33203v-59.238c0-7.5625-0.33203-17.277-5.2715-17.277h-8.7129v-4.9375h30.107v4.9375h-6.0918c-1.9746 0-3.7812 0.82031-3.7812 3.2852v95.126c0 1.4766-0.16797 2.6289-1.3223 2.6289-0.48828 0-1.1484-0.5-2.291-1.8164l-1.9824-2.293-71.25-85.907h-0.33594v66.32c0 7.5625 0.33594 17.278 5.2754 17.278h8.7188v4.9336h-30.111v-4.9336h6.0898c1.9668 0 3.7773-0.82422 3.7773-3.2969v-72.403c0-13.328-1.4785-18.922-9.2031-18.922h-5.1094v-4.9375h23.863z"/>
<path d="m638.99 103.2-18.266 43.773h32.746zm-20.57 49.695c-3.6211 9.2227-9.5489 25.344-9.5489 29.958 0 3.4531 1.6504 4.2773 4.1133 4.2773h10.367v4.9336h-33.232v-4.9336h3.2891c2.4688 0 4.9394-0.49609 5.918-2.6367l41.639-98.567c4.1094-0.99219 8.7246-2.1367 9.7051-2.1367 0.8261 0 1.6445 0.49219 1.6445 1.6406 0 2.1406-2.957 1.9766-2.957 5.1055 0 7.0703 20.392 62.027 28.461 83.926 3.7851 10.364 5.7558 12.669 10.035 12.669h4.9415v4.9336h-36.863v-4.9336h8.8867c1.1582 0 2.3047-0.49609 2.3047-1.6484s-4.6074-12.669-11.35-32.587h-37.354z"/>
<path d="m743.25 92.504h-7.3984c-1.8223 0-2.4688 1.1484-2.4688 2.6289v70.598c0 20.403 1.8028 20.403 6.7344 20.403h11.031c27.965 0 34.387-4.1133 37.186-8.7236 0.4981-0.81641 0.8272-1.8047 1.9776-1.8047 0.6562 0 1.3125 0.98828 1.3125 1.8047 0 1.4844-2.1348 8.0674-4.1143 14.649h-78.328v-4.9336h7.7422c1.8144 0 2.4785-1.1562 2.4785-2.6367v-68.786c0-16.941-0.3321-23.199-4.6094-23.199h-9.7149v-4.9375h38.172z"/>
<path d="m99.775 230.84c-1.4785 0-1.6406-0.65234-1.9727-3.1211-0.81445-5.9297-14.479-10.367-24.352-10.367-30.271 0-47.717 23.039-47.717 51.668 0 30.609 23.035 47.23 43.439 47.23 14.812 0 31.102-6.75 32.252-15.965 0.16211-1.3125 0.32227-2.9609 2.1445-2.9609 1.3125 0 1.6406 1.1484 1.6406 2.1406 0 1.4805-0.32813 3.9492-0.98633 14.312-11.02 5.4336-25.178 8.3906-37.844 8.3906-32.74 0-55.613-17.117-55.613-51.336 0-35.383 29.443-59.406 63.68-59.406 10.033 0 19.412 2.1406 28.299 5.5938-1.1582 13.324-1.3203 13.82-2.9707 13.82z"/>
<path d="m129.4 263.75c0 37.195 22.043 52.984 41.465 52.984 22.211 0 37.186-16.934 37.186-46.898 0-37.184-22.049-52.98-41.463-52.98-22.209 0-37.188 16.953-37.188 46.895zm-13.984 4.6094c0-31.102 22.049-56.934 54.789-56.934 33.077 0 51.833 21.715 51.833 53.797 0 31.113-22.055 56.945-54.795 56.945-33.076 0-51.826-21.727-51.826-53.809z"/>
<path d="m355.64 219.48h-7.4004c-1.8066 0-2.4707 1.1602-2.4707 2.6367v68.777c0 16.961 0.33203 23.211 4.6074 23.211h9.3789v4.9297h-38.168v-4.9297h7.7266c1.8125 0 2.4707-1.1602 2.4707-2.6367v-80.965l-0.33203-0.32031-36.855 87.211c-0.33398 0.82422-0.66016 1.1445-2.9648 1.1445-0.82031 0-1.4805-1.9688-2.4609-4.1094l-38.668-82.113-0.32617 0.33203v64.18c0 7.5625 0.32617 17.277 5.2578 17.277h8.7188v4.9297h-30.104v-4.9297h6.0879c1.9727 0 3.7793-0.82422 3.7793-3.293v-72.41c0-13.328-1.4727-18.922-9.2188-18.922h-5.0918v-4.9297h26.326l39.811 82.113 36.369-82.113h23.527v4.9297z"/>
<path d="m498.3 219.48h-7.4082c-1.8106 0-2.4707 1.1602-2.4707 2.6367v68.777c0 16.961 0.32813 23.211 4.6133 23.211h9.3789v4.9297h-38.176v-4.9297h7.7324c1.8047 0 2.4668-1.1602 2.4668-2.6367v-80.965l-0.33203-0.32031-36.854 87.211c-0.32813 0.82422-0.64648 1.1445-2.9531 1.1445-0.82813 0-1.4902-1.9688-2.4785-4.1094l-38.662-82.113-0.33203 0.33203v64.18c0 7.5625 0.33203 17.277 5.2637 17.277h8.7246v4.9297h-30.109v-4.9297h6.0879c1.9727 0 3.7852-0.82422 3.7852-3.293v-72.41c0-13.328-1.4785-18.922-9.2188-18.922h-5.0981v-4.9297h26.321l39.83 82.113 36.361-82.113h23.527v4.9297z"/>
<path d="m509.85 214.55h38.166v4.9297h-7.3984c-1.8106 0-2.4707 1.1602-2.4707 2.6367v62.367c0 24.184 15.967 30.938 27.98 30.938 34.053 0 34.545-26.16 34.545-39.168v-39.492c0-7.5703-0.32813-17.281-5.2598-17.281h-8.7246v-4.9297h30.111v4.9297h-6.084c-1.9785 0-3.789 0.82813-3.789 3.2891v58.586c0 25.34-16.127 40.809-41.625 40.809-39.324 0-41.139-25.668-41.139-42.941v-36.543c0-16.934-0.33203-23.199-4.6113-23.199h-9.7012v-4.9297z"/>
<path d="m722.11 296h0.332v-59.242c0-7.5703-0.332-17.281-5.2793-17.281h-8.7129v-4.9297h30.111v4.9297h-6.0918c-1.9707 0-3.7891 0.82813-3.7891 3.2891v95.121c0 1.4766-0.1562 2.6328-1.3066 2.6328-0.5 0-1.1504-0.49609-2.3067-1.8203l-1.9746-2.293-71.244-85.906h-0.3281v66.324c0 7.5625 0.3281 17.277 5.2519 17.277h8.7285v4.9297h-30.111v-4.9297h6.0918c1.9707 0 3.7793-0.82422 3.7793-3.293v-72.41c0-13.328-1.4785-18.922-9.2031-18.922h-5.1114v-4.9297h23.859z"/>
<path d="m784.46 290.9c0 16.961 0.3281 23.211 4.6084 23.211h9.3731v4.9297h-38.171v-4.9297h7.7343c1.8067 0 2.4707-1.1602 2.4707-2.6367v-68.789c0-16.934-0.332-23.199-4.6054-23.199h-9.7149v-4.9297h38.177v4.9297h-7.4033c-1.8106 0-2.4688 1.1602-2.4688 2.6367z"/>
<path d="m864.43 290.9c0 16.961 0.3282 23.211 4.6094 23.211h12.674v4.9297h-46.082v-4.9297h12.35c1.8067 0 2.461-1.1602 2.461-2.6367v-91.004h-4.1153c-19.252 0-28.633 3.4688-30.271 8.3984-0.3321 0.99219-0.9922 2.3047-2.3067 2.3047-0.9902 0-1.8066-0.49219-1.8066-1.6406 0-1 2.2949-8.2344 4.6015-14.977h81.779c2.2989 6.7422 4.6055 13.977 4.6055 14.977 0 1.1484-0.8242 1.6406-1.8066 1.6406-1.3203 0-1.9786-1.3125-2.3067-2.3047-1.6465-4.9297-11.02-8.3984-30.275-8.3984h-4.1093v70.43z"/>
<path d="m967.65 290.9c0 16.961 0.332 23.211 4.5938 23.211h9.3867v4.9297h-38.172v-4.9297h7.7363c1.8067 0 2.4668-1.1602 2.4668-2.6367v-37.352c-18.924-33.078-24.527-44.426-30.607-52.172-1.8184-2.2969-2.6367-2.4648-5.4356-2.4648h-5.5898v-4.9297h37.022v4.9297h-7.5703c-1.1465 0-2.627 0-2.627 0.65234 0 1.4922 14.148 25.516 26.49 47.234 20.24-38.012 22.539-42.785 22.539-45.902 0-1.8164-1.3203-1.9844-3.291-1.9844h-9.543v-4.9297h29.947v4.9297h-5.7559c-2.6289 0-3.457 2.8008-4.6035 4.9453l-26.986 49.191z"/>
<path d="m18.992 363.11c0 13.328 12.344 17.609 22.709 21.555 21.053 7.7305 31.092 14.484 31.092 32.086 0 14.324-12.5 32.254-39.65 32.254-8.0606 0-18.1-1.6445-25.674-4.6055-1.8047-10.199-2.4688-13.656-2.4688-15.137 0-1.1484 0.66406-1.9688 1.9824-1.9688 1.6465 0 2.1348 1.6367 2.4648 3.1289 2.3047 9.2109 17.611 12.664 25.672 12.664 13.158 0 26.654-6.582 26.654-21.391 0-12.68-9.541-18.273-25.84-24.195-7.4004-2.6289-27.473-9.0469-27.473-29.125 0-19.742 19.746-30.113 37.355-30.113 6.9043 0 13.324 0.65234 18.586 3.1289 0.16211 3.9453 0.49414 8.0625 0.49414 12.008 0 1.1562-0.49414 2.1406-1.8106 2.1406-1.6406 0-1.8125-1.3125-1.9727-2.4688-1.1465-7.0703-14.482-8.8828-19.744-8.8828-11.023-1e-5 -22.377 6.7422-22.377 18.922z"/>
<path d="m93.527 369.52c0-16.938-0.33203-23.191-4.6055-23.191h-9.7148v-4.9414h82.439c-1.4805 14.484-1.9746 14.977-3.4531 15.312-1.3184 0-1.6445-0.82813-1.9727-2.9766-0.49609-1.9688-3.3008-6.418-29.293-6.418h-16.121c-2.4727 0-3.2969 1.3242-3.2969 2.9648v35.699h19.086c16.955 0 22.049-0.64453 22.049-5.582v-6.418h4.4473v27.812h-4.4473v-5.7578c0-4.4453-1.6406-4.6055-20.398-4.6055h-20.736v28.125c0 20.41 1.8164 20.41 6.748 20.41h11.029c27.967 0 34.385-4.1133 37.184-8.7266 0.49023-0.80859 0.82031-1.8086 1.9727-1.8086 0.6543 0 1.3184 1 1.3184 1.8086 0 1.4922-2.1445 8.0625-4.1152 14.645h-78.322v-4.9297h7.7324c1.8164 0 2.4707-1.1602 2.4707-2.6367v-68.785z"/>
<path d="m210.68 393.55c14.148 0 28.623-5.0977 28.623-21.223 0-15.469-11.678-25.02-24.68-25.02h-8.3926c-1.4785 0-3.7832 0.17188-3.7832 2.3086v43.934h8.2324zm-22.217-24.027c0-16.938-0.32617-23.191-4.6074-23.191h-9.7075v-4.9414h46.071c14.477 0 33.066 7.3945 33.066 28.305 0 14.812-11.178 23.855-25.66 26.484 27.152 39.328 32.746 44.766 37.518 44.766h4.1133v4.9297h-18.922c-3.7852 0-5.5918-0.16016-35.711-47.391h-12.176v19.25c0 16.961 0.33203 23.211 4.6074 23.211h9.3789v4.9297h-38.168v-4.9297h7.727c1.8125 0 2.4707-1.1602 2.4707-2.6367v-68.785z"/>
<path d="m367.97 346.33h-7.2344c-0.99219 0-1.3242 0-1.9766 1.8008l-37.518 95.117c-1.4785 3.6211-1.9727 5.7539-3.6172 5.7539-1.1523 0-1.6504-1.3203-2.8027-4.2734l-34.881-84.418c-5.5957-13.34-6.5801-13.98-12.01-13.98h-3.9512v-4.9414h35.539v4.9414h-8.8809c-0.99023 0-1.6445 0-1.6445 0.97656 0 1.4766 11.518 26.992 32.58 78.168 21.053-51.176 28.631-70.102 28.631-76.355 0-2.3086-1.3242-2.7891-4.1152-2.7891h-9.3809v-4.9414h31.262z"/>
<path d="m409.6 417.73c0 16.961 0.32813 23.211 4.6016 23.211h9.3867v4.9297h-38.182v-4.9297h7.7383c1.8125 0 2.4668-1.1602 2.4668-2.6367v-68.785c0-16.938-0.32227-23.191-4.5996-23.191h-9.7168v-4.9414h38.176v4.9414h-7.4062c-1.8125 0-2.4648 1.1484-2.4648 2.625z"/>
<path d="m521.3 357.67c-1.4785 0-1.6504-0.66016-1.9785-3.1211-0.82422-5.9219-14.48-10.367-24.35-10.367-30.273 0-47.719 23.043-47.719 51.668 0 30.609 23.035 47.23 43.439 47.23 14.809 0 31.098-6.7539 32.246-15.965 0.16797-1.3125 0.33203-2.9609 2.1328-2.9609 1.3281 0 1.6484 1.1484 1.6484 2.1406 0 1.4805-0.32031 3.9492-0.98828 14.312-11.023 5.4336-25.172 8.3906-37.844 8.3906-32.74 0-55.611-17.109-55.611-51.336 0-35.383 29.455-59.406 63.678-59.406 10.037 0 19.414 2.1406 28.303 5.5938-1.1504 13.328-1.3183 13.82-2.957 13.82z"/>
<path d="m549.11 369.52c0-16.938-0.32813-23.191-4.6152-23.191h-9.709v-4.9414h82.439c-1.4863 14.484-1.9765 14.977-3.457 15.312-1.3184 0-1.6465-0.82813-1.9687-2.9766-0.5-1.9688-3.2911-6.418-29.297-6.418h-16.119c-2.4688 0-3.2891 1.3242-3.2891 2.9648v35.699h19.076c16.951 0 22.062-0.64453 22.062-5.582v-6.418h4.4434v27.812h-4.4434v-5.7578c0-4.4453-1.6504-4.6055-20.408-4.6055h-20.73v28.125c0 20.41 1.8106 20.41 6.7383 20.41h11.027c27.969 0 34.389-4.1133 37.19-8.7266 0.4921-0.80859 0.8281-1.8086 1.9746-1.8086 0.6621 0 1.3144 1 1.3144 1.8086 0 1.4922-2.1426 8.0625-4.1133 14.645h-78.326v-4.9297h7.7402c1.8106 0 2.4707-1.1602 2.4707-2.6367v-68.785z"/>
<path d="m49.988 48.859c0.21484-0.81055 0.36719-1.252 0.96094-1.252s0.80859 0.21875 0.80859 1.0352c0 0.5957-0.6582 3.4785-1.252 6.5879-5.252 2.5879-11.471 4.0644-17.309 4.0644-11.764 0-19.9-7.1738-19.9-19.309 0-17.383 13.238-30.92 30.699-30.92 3.9199 0 7.9883 0.81836 11.682 2.0723-0.51758 6.2148-0.8125 6.5078-1.4785 6.5078-0.66406 0-0.88477-0.44531-0.95898-1.0371-0.36914-3.8398-6.9512-4.8789-10.201-4.8789-12.508 0-23.227 11.096-23.227 26.996 0 9.916 4.6504 17.904 16.121 17.904 6.6543 0 13.164-4.5098 14.055-7.7715z"/>
<path d="m76.018 56.85c8.291 0 10.809-12.867 10.809-19.156 0-3.9961-0.82227-10.723-6.0703-10.723-8.2852 0-10.803 12.867-10.803 19.158 0 3.9942 0.81054 10.721 6.0644 10.721zm6.5859-32.1c6.5059 0 10.209 4.6621 10.209 11.094 0 12.799-8.957 23.227-18.637 23.227-6.5117 0-10.215-4.6602-10.215-11.096 0-12.799 8.9531-23.225 18.643-23.225z"/>
<path d="m101.83 28.668c3.6934-2.584 9.3945-3.918 11.316-3.918 0.37305 0 0.74023 0 0.74023 1.4785 0 2.7402-1.0371 8.9473-1.627 12.432l0.29883 0.14063c3.25-7.0234 7.834-14.051 12.941-14.051 1.3281 0 2.7305 0.59375 2.7305 2.1465 0 1.8457-1.9961 2.5898-3.5508 2.5898-1.0254 0-2.0644-0.30078-2.959-0.74414-1.4785 0.37305-8.6543 7.25-10.939 22.414l-0.96484 6.5078h-5.6211c1.5547-9.1699 2.8125-18.344 3.6992-26.924 0-1.6953-0.15039-2.4394-0.95703-2.4394-0.66797 0-2.7422 0.81445-4.5137 1.8457z"/>
<path d="m140.74 56.705c0.80664 0.21875 1.6914 0.37109 3.0293 0.37109 5.5449 0 14.572-6.1445 14.572-20.488 0-2.2227-0.5957-7.4023-3.9961-7.4023-4.5176 0-8.5137 7.543-10.059 11.168-1.7051 3.918-2.4512 8.8066-3.5469 16.352zm-8.291-28.037c3.7031-2.584 9.3867-3.918 11.32-3.918 0.36719 0 0.73438 0 0.73438 1.4785 0 1.9199-0.36719 6.8086-1.1875 11.465h0.30078c2.3652-5.248 7.3965-12.943 13.613-12.943 5.5488 0 7.0996 5.916 7.0996 10.875 0 12.133-9.4648 23.445-21.971 23.445h-1.9219c-0.52344 4.4394-1.5547 11.611-1.5547 13.535 0 1.8516 0.66992 2.1445 1.8574 2.1445h5.8379l-0.36719 2h-17.018l0.375-2h1.8418c0.5957 0 1.3301-0.14844 1.4805-0.95703 0.44336-2.8809 5.625-41.061 5.625-43.053 0-1.6953-0.15039-2.4394-0.95898-2.4394-0.67188 0-2.7441 0.81445-4.5137 1.8457z"/>
<path d="m184.59 56.85c8.293 0 10.809-12.867 10.809-19.156 0-3.9961-0.81445-10.723-6.0664-10.723-8.2891 0-10.799 12.867-10.799 19.158 1e-5 3.9942 0.81447 10.721 6.0571 10.721zm6.5859-32.1c6.5078 0 10.211 4.6621 10.211 11.094 0 12.799-8.9473 23.227-18.639 23.227-6.5102 0-10.209-4.6602-10.209-11.096-1e-5 -12.799 8.9516-23.225 18.637-23.225z"/>
<path d="m210.41 28.668c3.6973-2.584 9.3984-3.918 11.32-3.918 0.36719 0 0.73633 0 0.73633 1.4785 0 2.7402-1.0391 8.9473-1.6211 12.432l0.29297 0.14063c3.25-7.0234 7.832-14.051 12.939-14.051 1.334 0 2.7441 0.59375 2.7441 2.1465 0 1.8457-2.0039 2.5898-3.5527 2.5898-1.0371 0-2.0742-0.30078-2.9609-0.74414-1.4785 0.37305-8.6543 7.25-10.947 22.414l-0.9668 6.5078h-5.6211c1.5566-9.1699 2.8144-18.344 3.6992-26.924 0-1.6953-0.15039-2.4394-0.95508-2.4394-0.66992 0-2.7441 0.81445-4.5137 1.8457z"/>
<path d="m264.11 34.443 0.95703-6.8809c-0.66602-0.29883-1.4746-0.44727-2.2207-0.44727-9.248 0-15.311 9.4727-15.311 20.414 0 2.5938 0.5918 7.1074 4.0644 7.1074 3.332 1e-5 10.285-4.8164 12.51-20.193zm10.424 19.521c-4.7383 4.0703-9.7656 5.1055-11.092 5.1055-0.51953 0-1.4824-0.51758-1.4824-3.1816 0-2.5801 0.15234-5.916 0.66992-9.7598h-0.15039c-2.3633 5.3242-7.6172 12.941-13.836 12.941-5.1738 0-7.0957-5.623-7.0957-9.9844 0-12.131 9.3203-23.969 21.375-23.969 1.5547 0 3.7695 0.15234 5.8379 0.45117 0-2.0703 0.30078-2.1445 2.7402-2.2969-1.916 9.0215-3.3262 18.195-3.7734 29.885 0 1.6953 0.44727 1.9219 0.97266 1.9219 1.0957 0 3.9121-1.7012 5.166-2.5195z"/>
<path d="m291.7 26.154h6.9531l-0.22656 1.9941h-7.0293c-1.6992 8.7285-3.25 18.498-3.25 23.453 0 1.6309 0.14648 3.9961 2.293 3.9961 1.7715 0 4.2891-1.2617 6.7324-2.9609l0.81055 1.5547c-2.7402 2.3652-7.3906 4.8789-11.096 4.8789-3.4707 0-4.5879-2.2207-4.5879-5.3945 0-6.4356 1.9238-17.389 3.6289-25.527h-3.9902l0.29688-1.9941c1.3281 0 2.9531 0 3.6172-0.36719 1.4043-0.73633 4.1465-6.7363 5.3984-9.1777l2.1504-0.29297z"/>
<path d="m312.18 15.949c0-2.1465 1.9922-4.5117 4.207-4.5117 1.5606 0 2.373 1.2539 2.373 2.7324 0 2.0723-1.7812 4.4356-3.9922 4.4356-1.5527 0-2.5879-1.1777-2.5879-2.6562zm-6.5098 12.719c3.6934-2.584 9.3867-3.918 11.309-3.918 0.37891 0 0.74609 0 0.74609 1.4785 0 2.2988-3.1094 24.703-3.1094 26.928 0 1.6953 0.44141 1.9219 0.96484 1.9219 1.1074 0 3.916-1.7012 5.1738-2.5195l0.66406 1.4062c-4.7305 4.0703-9.7617 5.1055-11.096 5.1055-0.51758 0-1.4785-0.51758-1.4785-3.1816 0-1.6973 2.8926-23.521 2.8926-25.148 0-1.6953-0.15039-2.4394-0.96484-2.4394-0.66602 0-2.7383 0.81445-4.5098 1.8457z"/>
<path d="m342.28 56.85c8.2871 0 10.799-12.867 10.799-19.156 0-3.9961-0.81641-10.723-6.0644-10.723-8.2871 0-10.803 12.867-10.803 19.158-1e-5 3.9942 0.81445 10.721 6.0684 10.721zm6.5801-32.1c6.5137 0 10.211 4.6621 10.211 11.094 0 12.799-8.9453 23.227-18.639 23.227-6.5039 0-10.209-4.6602-10.209-11.096-1e-5 -12.799 8.9473-23.225 18.637-23.225z"/>
<path d="m368.69 57.664c1.5547-9.1699 2.8066-18.344 3.6934-26.924 0-1.6953-0.14063-2.4394-0.96094-2.4394-0.66016 0-2.7324 0.81445-4.5137 1.8457l-0.59375-1.4785c3.7031-2.584 9.3989-3.918 11.321-3.918 0.37305 0 0.73633 0 0.73633 1.4785 0 2.7402-1.0332 8.9473-1.6211 12.432l0.29102 0.14063c2.0039-4.6543 8.4356-14.051 13.688-14.051 3.918 0 5.1016 3.3984 5.1016 6.8086 0 5.1699-2.4356 19.154-2.4356 21 0 1.707 0.44336 1.9258 0.96094 1.9258 1.1133 0 3.9199-1.6953 5.168-2.5117l0.67383 1.4043c-4.7285 4.0644-9.7598 5.0996-11.1 5.0996-0.51367 0-1.4805-0.51563-1.4805-3.1758 0-1.7012 2.4473-18.346 2.4473-21.896 0-3.4023-0.81641-4.2188-2.2949-4.2188-2.959 0-10.285 7.1758-12.5 21.971l-0.95508 6.5078z"/>
<path d="m447.01 28.148c-1.0371 9.7676-2.5137 25.816-3.1719 29.67-0.67188 3.6934-3.4844 18.338-16.199 18.338-2.1504 0-4.668-1.1094-4.668-3.0312 0-1.2559 1.1914-1.9219 2.2949-1.9219 1.9297 0 3.3281 1.3281 4.2949 2.7383 6.5059-0.44922 7.9824-10.65 8.2793-13.314 0.375-2.8086 1.9258-14.646 3.623-32.479h-4.877l0.36523-1.9941h4.7363l0.88672-5.3965c1.4785-9.1797 6.2891-15.758 14.275-15.758 1.3301 0 4.4394 0.74219 4.4394 2.8867 0 1.1797-1.1113 1.7734-2.1445 1.7734-1.8516 0-2.9629-1.2539-4.0723-2.4394-4.8828 0.5918-6.9492 7.25-7.834 18.934h5.7598l-0.36328 1.9941z"/>
<path d="m471.79 56.85c8.2891 0 10.807-12.867 10.807-19.156 0-3.9961-0.81836-10.723-6.0684-10.723-8.2871 0-10.801 12.867-10.801 19.158 0 3.9942 0.82031 10.721 6.0625 10.721zm6.5879-32.1c6.5039 0 10.207 4.6621 10.207 11.094 0 12.799-8.9453 23.227-18.639 23.227-6.5078 0-10.211-4.6602-10.211-11.096 0-12.799 8.9492-23.225 18.643-23.225z"/>
<path d="m497.61 28.668c3.6992-2.584 9.3945-3.918 11.316-3.918 0.37305 0 0.74219 0 0.74219 1.4785 0 2.7402-1.0391 8.9473-1.6309 12.432l0.30078 0.14063c3.2461-7.0234 7.832-14.051 12.943-14.051 1.3262 0 2.7344 0.59375 2.7344 2.1465 0 1.8457-2.002 2.5898-3.5469 2.5898-1.041 0-2.0801-0.30078-2.9688-0.74414-1.4785 0.37305-8.6426 7.25-10.941 22.414l-0.96484 6.5078h-5.623c1.5586-9.1699 2.8125-18.344 3.7051-26.924 0-1.6953-0.15234-2.4394-0.96484-2.4394-0.66602 0-2.7402 0.81445-4.5098 1.8457z"/>
</g></svg>
